<?xml version="1.0" encoding="utf-8"?>
<!-- Generator: Adobe Illustrator 24.0.1, SVG Export Plug-In . SVG Version: 6.00 Build 0)  -->
<svg version="1.1" id="Camada_1" xmlns="http://www.w3.org/2000/svg" xmlns:xlink="http://www.w3.org/1999/xlink" x="0px" y="0px"
	 viewBox="0 0 1920 1080" style="enable-background:new 0 0 1920 1080;" xml:space="preserve">
<style type="text/css">
	.st0{fill:#002E58;}
	.st1{fill:none;stroke:#002E58;stroke-width:29;stroke-miterlimit:10;}
</style>
<path class="st0" d="M774.3,940.3c0,0-96.7-62.3-161.5-157.9c-49.3-72.7-70.7-182.4-72-194.7c-2.4-24.3-2.9-73.5,0-97.8
	c3-25.3,26.7-111,72.3-183.3C650,248.2,711,198.1,711,198.1l58.2,94.4l59.8-174.6L970.7,90v898.4c0,0-126.3-12.7-156.8-28.2
	c-0.7-0.3-1.4-2.4-1.4-2.4l-0.4-479.8l-42.4,120.5L706.4,477c0,0-14.4,16.9-18.5,38.5c-5.8,30.7,2.5,83.9,11,110.2
	c2.7,8.2,10,24,15.5,34.9c7.4,14.7,13.9,24.8,22.9,36.9c17.5,23.5,37.4,36.4,37.4,36.4L774.3,940.3z"/>
<path class="st0" d="M995.9,90.2c0,0,73.9,3.2,142.8,26.7c59.8,20.4,118.2,58.5,145,81.2c34.4,29,81.5,78,117.3,146.9
	c31.8,61.1,37.8,134.2,37.8,134.2l-147.8-0.1c0,0-4-49.9-49.1-109.6c-36.4-48.1-86.2-72.5-86.2-72.5l-0.1,498.3
	c0,0,16.5-8.2,26.6-15.8c15.1-11.3,30.8-25.5,39.1-33.8c7.2-7.1,19-19.5,29.7-33.4c9.9-12.7,15.2-26.2,15.2-26.2l-49-0.2l0-109.6
	l221.6-0.2c0,0,0,63.2-12.5,97.3c-26.2,71.6-77.3,145.9-86.5,157.5c-20.3,25.4-42.3,42.9-49.7,48.6c-9,7-44.6,29.4-86.6,50.3
	c-25.7,12.8-74.5,35.7-122,48c-42.5,11-85.6,12.1-85.6,12.1V90.2z"/>
<g>
</g>
<circle class="st1" cx="988.8" cy="540" r="500"/>
</svg>
